<svg width="230" height="80" viewBox="0 0 230 80" fill="none" xmlns="http://www.w3.org/2000/svg">
<g clip-path="url(#clip0_101_1100)">
<path d="M65.138 65.2632C66.4223 65.2632 67.4855 65.6981 68.3382 66.5574C69.212 67.4166 69.633 68.488 69.633 69.7609C69.633 71.0339 69.212 72.0841 68.3382 72.9645C67.4855 73.8238 66.4223 74.2587 65.138 74.2587H62.3694V78.9474H60.1376V65.2738H65.138V65.2632ZM65.138 72.1371C66.4539 72.1371 67.4013 71.14 67.4013 69.7503C67.4013 68.3607 66.4539 67.3636 65.138 67.3636H62.3694V72.1265H65.138V72.1371Z" fill="#103559"/>
<path d="M72.9919 75.0326C73.3146 76.4027 74.5722 77.1563 76.275 77.1563C77.4435 77.1563 78.3227 76.7746 78.9237 76.0406L80.7489 76.9802C79.7473 78.2916 78.2448 78.9473 76.2638 78.9473C74.6056 78.9473 73.2478 78.4971 72.2239 77.6163C71.2001 76.7159 70.6881 75.5806 70.6881 74.2105C70.6881 72.8403 71.2001 71.7442 72.2017 70.8438C73.2033 69.9238 74.5165 69.4736 76.0969 69.4736C77.5882 69.4736 78.8235 69.9434 79.7807 70.8634C80.7489 71.7833 81.2386 72.9186 81.2386 74.23C81.2386 74.4258 81.2163 74.6998 81.1607 75.0424H73.003L72.9919 75.0326ZM79.0016 73.4471C78.69 71.9889 77.5214 71.2255 76.0746 71.2255C74.4386 71.2255 73.2923 72.0769 72.9807 73.4471H79.0016Z" fill="#103559"/>
<path d="M87.5688 71.0923H85.1471V75.7942C85.1471 77.0495 85.965 77.0282 87.5688 76.9537V78.8579C84.3399 79.2515 83.0335 78.3686 83.0335 75.8049V71.1029H81.2385V69.0605H83.0335V66.9435L85.1471 66.3159V69.0605H87.5688V71.1029V71.0923Z" fill="#103559"/>
<path d="M92.7734 73.363C94.2001 73.6667 96.0488 74.2448 96.0086 76.1748C96.0086 77.0369 95.6569 77.7227 94.9737 78.2125C94.2905 78.7024 93.4365 78.9473 92.4016 78.9473C90.5731 78.9473 89.2167 78.1538 88.6239 76.841L90.342 75.8711C90.6534 76.7332 91.3366 77.1741 92.3916 77.1741C93.4465 77.1741 93.969 76.8312 93.969 76.165C93.969 75.5869 93.1954 75.2441 92.2107 75.0089C90.8242 74.666 88.9555 74.1272 88.9956 72.2266C88.9956 71.3938 89.3071 70.7276 89.9602 70.228C90.6032 69.7186 91.4271 69.4736 92.3815 69.4736C93.9188 69.4736 95.1546 70.179 95.8076 71.3547L94.1197 72.2756C93.8082 71.5898 93.2155 71.2469 92.3815 71.2469C91.628 71.2469 91.0352 71.5702 91.0352 72.207C91.0352 72.8046 91.8089 73.1083 92.7734 73.3826V73.363Z" fill="#103559"/>
<path d="M108.67 67.2754C107.007 67.14 106.199 67.7751 106.199 69.1704V69.3578H108.67V71.3569H106.199V78.9474H103.933V71.3569H102.339V69.3578H103.933V69.1704C103.933 66.5465 105.573 65.1096 108.67 65.2762V67.2754Z" fill="#103559"/>
<path d="M111.266 77.5772C110.246 76.6572 109.725 75.5415 109.725 74.2105C109.725 72.8795 110.246 71.7638 111.266 70.8438C112.286 69.9238 113.545 69.4736 115 69.4736C116.454 69.4736 117.714 69.9238 118.734 70.8438C119.754 71.7638 120.275 72.8795 120.275 74.2105C120.275 75.5415 119.754 76.6572 118.734 77.5772C117.714 78.4971 116.476 78.9473 115 78.9473C113.524 78.9473 112.286 78.4971 111.266 77.5772ZM115 77.0585C115.879 77.0585 116.617 76.7844 117.214 76.2461C117.811 75.7079 118.115 75.0228 118.115 74.2105C118.115 73.3982 117.811 72.7131 117.214 72.1748C116.617 71.6365 115.879 71.3625 115 71.3625C114.121 71.3625 113.383 71.6365 112.786 72.1748C112.189 72.7131 111.885 73.3982 111.885 74.2105C111.885 75.0228 112.189 75.7079 112.786 76.2461C113.383 76.7844 114.121 77.0585 115 77.0585Z" fill="#103559"/>
<path d="M123.504 71.2026C124.05 70.0499 125.098 69.4736 126.606 69.4736V71.6474C125.786 71.5868 125.055 71.7789 124.432 72.2035C123.81 72.618 123.504 73.3056 123.504 74.256V78.9473H121.33V69.6354H123.504V71.2026Z" fill="#103559"/>
<path d="M142.431 75.0407C142.431 76.1553 142.057 77.0896 141.299 77.8327C140.54 78.5758 139.62 78.9474 138.528 78.9474H132.936V65.2632H138.113C139.175 65.2632 140.085 65.6348 140.813 66.3566C141.562 67.0785 141.926 67.9809 141.926 69.0532C141.926 70.2422 141.481 71.1658 140.601 71.8452C141.733 72.4715 142.421 73.6075 142.421 75.03L142.431 75.0407ZM135.08 67.3758V70.9747H138.113C139.064 70.9747 139.792 70.1891 139.792 69.1805C139.792 68.172 139.064 67.3864 138.113 67.3864H135.08V67.3758ZM138.528 76.8348C139.519 76.8348 140.298 75.9961 140.298 74.9239C140.298 73.8516 139.519 73.013 138.528 73.013H135.08V76.8454H138.528V76.8348Z" fill="#103559"/>
<path d="M146.843 75.0326C147.165 76.4027 148.421 77.1563 150.122 77.1563C151.29 77.1563 152.168 76.7746 152.768 76.0406L154.591 76.9802C153.591 78.2916 152.09 78.9473 150.111 78.9473C148.455 78.9473 147.098 78.4971 146.075 77.6163C145.053 76.7159 144.541 75.5806 144.541 74.2105C144.541 72.8403 145.053 71.7442 146.053 70.8438C147.054 69.9238 148.366 69.4736 149.944 69.4736C151.434 69.4736 152.668 69.9434 153.635 70.8634C154.603 71.7833 155.092 72.9186 155.092 74.23C155.092 74.4258 155.069 74.6998 155.014 75.0424H146.865L146.843 75.0326ZM152.846 73.4471C152.535 71.9889 151.367 71.2255 149.922 71.2255C148.288 71.2255 147.143 72.0769 146.831 73.4471H152.857H152.846Z" fill="#103559"/>
<path d="M159.241 73.363C160.668 73.6667 162.517 74.2448 162.476 76.1748C162.476 77.0369 162.125 77.7227 161.442 78.2125C160.758 78.7024 159.904 78.9473 158.87 78.9473C157.041 78.9473 155.685 78.1538 155.092 76.841L156.81 75.8711C157.121 76.7332 157.805 77.1741 158.859 77.1741C159.914 77.1741 160.437 76.8312 160.437 76.165C160.437 75.5869 159.663 75.2441 158.679 75.0089C157.292 74.666 155.423 74.1272 155.464 72.2266C155.464 71.3938 155.775 70.7276 156.428 70.228C157.071 69.7186 157.895 69.4736 158.849 69.4736C160.387 69.4736 161.622 70.179 162.276 71.3547L160.588 72.2756C160.276 71.5898 159.683 71.2469 158.849 71.2469C158.096 71.2469 157.503 71.5702 157.503 72.207C157.503 72.8046 158.277 73.1083 159.241 73.3826V73.363Z" fill="#103559"/>
<path d="M169.862 71.0923H167.445V75.7942C167.445 77.0495 168.261 77.0282 169.862 76.9537V78.8579C166.639 79.2515 165.335 78.3686 165.335 75.8049V71.1029H163.532V69.0605H165.335V66.9435L167.445 66.3159V69.0605H169.862V71.1029V71.0923Z" fill="#103559"/>
<path d="M49.9771 6.42895C49.701 3.70644 48.6072 3.15771 46.4832 3.15771H37.4351C35.4492 3.15771 34.9713 3.49539 34.2173 5.67973L27.4312 27.7448L20.6451 5.67973C19.8911 3.49539 19.4132 3.15771 17.4273 3.15771H8.36855C6.24458 3.15771 5.15074 3.70644 4.87462 6.42895L0.0744448 49.7465C-0.127332 51.3082 0.0107257 51.9308 1.38069 52.1313L11.735 53.6297C13.3068 53.8302 13.6572 53.4925 13.859 52.3318L16.121 32.0396L20.9849 51.0444C21.4628 52.6061 22.0788 53.2287 23.6611 53.2287H31.2012C32.773 53.2287 33.3996 52.6167 33.8774 51.0444L38.6776 32.0396L41.0034 52.3318C41.2051 53.4925 41.5556 53.8302 43.1273 53.6297L53.4817 52.1313C54.8517 51.9308 54.9897 51.3188 54.7879 49.7465L49.9771 6.42895Z" fill="#103559"/>
<path d="M74.9083 14.7368C63.2879 14.7368 56.9725 22.7016 56.9725 33.6842C56.9725 44.6668 63.2879 52.6316 74.9083 52.6316C86.5286 52.6316 92.844 44.6668 92.844 33.6842C92.844 22.7016 86.5286 14.7368 74.9083 14.7368ZM74.9083 40.2385C72.1189 40.2385 70.6243 37.6251 70.6243 33.6738C70.6243 29.7226 72.1189 27.1091 74.9083 27.1091C77.6976 27.1091 79.1922 29.7226 79.1922 33.6738C79.1922 37.6251 77.6976 40.2385 74.9083 40.2385Z" fill="#103559"/>
<path d="M118.904 14.7579C116.522 14.7579 98.698 15.2311 97.5385 16.8614C97.0642 17.4083 97.0642 18.155 97.0642 19.4382L97.6123 49.0345C97.6755 51.7481 98.2974 52.6316 100.669 52.6316H108.975C111.357 52.6316 112.031 51.7481 112.031 49.0345V28.5989C113.054 28.2624 113.391 28.1257 114.551 28.052C116.111 27.9889 116.859 28.4622 117.344 29.7454C117.681 31.1021 117.755 33.1425 117.755 35.9192L117.692 49.024C117.692 51.7376 118.44 52.621 120.822 52.621H129.328C131.71 52.621 132.321 51.7376 132.385 49.024L132.933 30.9654C132.996 26.548 132.047 22.4777 129.802 19.4907C127.42 16.5038 123.879 14.7368 118.914 14.7368L118.904 14.7579Z" fill="#103559"/>
<path d="M150.828 18.9473H142.278C139.939 18.9473 139.266 19.754 139.266 22.4676V49.0483C139.266 51.7514 139.939 52.6315 142.278 52.6315H150.963C153.302 52.6315 154.037 51.7514 154.037 49.0483L153.902 22.4676C153.902 19.8273 153.167 18.9473 150.828 18.9473Z" fill="#103559"/>
<path d="M147.179 1.05273C142.115 1.05273 139.266 4.17093 139.266 8.42115C139.266 12.6714 142.115 15.7896 147.179 15.7896C152.243 15.7896 155.092 12.6714 155.092 8.42115C155.092 4.17093 152.243 1.05273 147.179 1.05273Z" fill="#103559"/>
<path d="M183.894 15.8392H178.635V6.68794C178.635 3.97723 177.939 3.15771 175.529 3.15771H167.367C164.946 3.15771 164.185 4.04027 164.185 6.68794V15.8392H160.04C157.759 15.8392 157.202 16.249 157.202 18.3503V25.7469C157.202 27.8483 157.759 28.258 160.04 28.258H164.185V41.1391C164.185 49.8176 168.813 53.684 177.531 53.684C180.091 53.684 182.651 53.4844 185.072 53.0011C186.111 52.8015 186.39 52.5283 186.39 51.5092L186.047 41.1286C186.047 40.2461 185.565 39.9099 184.665 40.1095C183.905 40.3091 183.144 40.4457 182.105 40.4457C180.102 40.4457 178.645 39.7628 178.645 36.8524V28.237H183.905C186.186 28.237 186.743 27.8272 186.743 25.7259V18.3293C186.743 16.2279 186.186 15.8182 183.905 15.8182L183.894 15.8392Z" fill="#103559"/>
<path d="M206.789 14.7368C195.169 14.7368 188.853 22.7016 188.853 33.6842C188.853 44.6668 195.169 52.6316 206.789 52.6316C218.409 52.6316 224.725 44.6668 224.725 33.6842C224.725 22.7016 218.409 14.7368 206.789 14.7368ZM206.789 40.2385C204 40.2385 202.505 37.6251 202.505 33.6738C202.505 29.7226 204 27.1091 206.789 27.1091C209.578 27.1091 211.073 29.7226 211.073 33.6738C211.073 37.6251 209.578 40.2385 206.789 40.2385Z" fill="#103559"/>
<path d="M228.06 16.221C226.841 15.3415 224.845 15.8496 223.583 17.3546C222.322 18.8595 222.291 20.7944 223.499 21.6739C224.718 22.5534 226.715 22.0453 227.976 20.5403C229.237 19.0354 229.269 17.1005 228.06 16.221Z" fill="#103559"/>
<path d="M199.37 13.6625C200.803 13.4424 201.742 11.6296 201.465 9.60717C201.189 7.58475 199.815 6.11771 198.382 6.33777C196.949 6.55783 196.01 8.37067 196.287 10.3931C196.564 12.4155 197.937 13.8825 199.37 13.6625Z" fill="#103559"/>
<path d="M217.938 15.5217C219.92 16.5225 222.922 14.6297 224.63 11.2901C226.339 7.95058 226.12 4.42611 224.126 3.42533C222.144 2.42455 219.143 4.31733 217.434 7.65688C215.725 10.9964 215.944 14.5209 217.938 15.5217Z" fill="#103559"/>
<path d="M207.674 12.6145C209.672 12.8688 211.611 10.2518 211.997 6.77667C212.383 3.29092 211.077 0.271348 209.069 0.0170684C207.071 -0.237211 205.132 2.37975 204.746 5.85491C204.361 9.34066 205.666 12.3602 207.674 12.6145Z" fill="#103559"/>
</g>
<defs>
<clipPath id="clip0_101_1100">
<rect width="115" height="40" fill="white" transform="scale(2)"/>
</clipPath>
</defs>
</svg>
